<svg width="28" height="29" viewBox="0 0 28 29" fill="none" xmlns="http://www.w3.org/2000/svg">
<path fill-rule="evenodd" clip-rule="evenodd" d="M0.455607 0.955607C1.06308 0.348131 2.04802 0.348131 2.6555 0.955607L27.5443 25.8446C28.1518 26.4521 28.1518 27.4368 27.5443 28.0443C26.9368 28.6518 25.9521 28.6518 25.3446 28.0443L0.455607 3.1555C-0.151869 2.54802 -0.151869 1.56308 0.455607 0.955607Z" fill="white"/>
<path fill-rule="evenodd" clip-rule="evenodd" d="M26.4443 5.1665C27.3034 5.1665 27.9998 5.86296 27.9998 6.72206V26.9443C27.9998 27.8034 27.3034 28.4998 26.4443 28.4998H6.22206C5.36296 28.4998 4.6665 27.8034 4.6665 26.9443C4.6665 26.0852 5.36296 25.3887 6.22206 25.3887H24.8887V6.72206C24.8887 5.86296 25.5852 5.1665 26.4443 5.1665Z" fill="white"/>
</svg>
